<svg width="33" height="33" viewBox="0 0 33 33" fill="none" xmlns="http://www.w3.org/2000/svg">
<path d="M28.4375 16.9565C28.4375 17.2218 28.3321 17.4761 28.1446 17.6637C27.9571 17.8512 27.7027 17.9565 27.4375 17.9565H5.4375C5.17228 17.9565 4.91793 17.8512 4.73039 17.6637C4.54286 17.4761 4.4375 17.2218 4.4375 16.9565C4.4375 16.6913 4.54286 16.437 4.73039 16.2494C4.91793 16.0619 5.17228 15.9565 5.4375 15.9565H27.4375C27.7027 15.9565 27.9571 16.0619 28.1446 16.2494C28.3321 16.437 28.4375 16.6913 28.4375 16.9565ZM5.4375 9.95654H27.4375C27.7027 9.95654 27.9571 9.85119 28.1446 9.66365C28.3321 9.47611 28.4375 9.22176 28.4375 8.95654C28.4375 8.69133 28.3321 8.43697 28.1446 8.24944C27.9571 8.0619 27.7027 7.95654 27.4375 7.95654H5.4375C5.17228 7.95654 4.91793 8.0619 4.73039 8.24944C4.54286 8.43697 4.4375 8.69133 4.4375 8.95654C4.4375 9.22176 4.54286 9.47611 4.73039 9.66365C4.91793 9.85119 5.17228 9.95654 5.4375 9.95654ZM27.4375 23.9565H5.4375C5.17228 23.9565 4.91793 24.0619 4.73039 24.2494C4.54286 24.437 4.4375 24.6913 4.4375 24.9565C4.4375 25.2218 4.54286 25.4761 4.73039 25.6637C4.91793 25.8512 5.17228 25.9565 5.4375 25.9565H27.4375C27.7027 25.9565 27.9571 25.8512 28.1446 25.6637C28.3321 25.4761 28.4375 25.2218 28.4375 24.9565C28.4375 24.6913 28.3321 24.437 28.1446 24.2494C27.9571 24.0619 27.7027 23.9565 27.4375 23.9565Z" fill="white"/>
</svg>
