<svg width="33" height="33" viewBox="0 0 33 33" fill="none" xmlns="http://www.w3.org/2000/svg">
<path d="M29.1453 28.2488L22.8865 21.9913C24.7006 19.8135 25.6051 17.0201 25.4121 14.1923C25.219 11.3644 23.9432 8.71991 21.85 6.8088C19.7568 4.8977 17.0073 3.86716 14.1737 3.93156C11.34 3.99596 8.64024 5.15034 6.63601 7.15457C4.63179 9.15879 3.4774 11.8586 3.413 14.6922C3.3486 17.5259 4.37914 20.2753 6.29025 22.3685C8.20135 24.4617 10.8459 25.7376 13.6737 25.9306C16.5015 26.1237 19.2949 25.2191 21.4728 23.4051L27.7303 29.6638C27.8232 29.7568 27.9335 29.8305 28.0549 29.8807C28.1763 29.931 28.3064 29.9569 28.4378 29.9569C28.5692 29.9569 28.6993 29.931 28.8207 29.8807C28.9421 29.8305 29.0524 29.7568 29.1453 29.6638C29.2382 29.5709 29.3119 29.4606 29.3622 29.3392C29.4125 29.2178 29.4383 29.0877 29.4383 28.9563C29.4383 28.8249 29.4125 28.6948 29.3622 28.5734C29.3119 28.4521 29.2382 28.3418 29.1453 28.2488ZM5.43779 14.9563C5.43779 13.1763 5.96563 11.4362 6.95456 9.95621C7.94349 8.47616 9.3491 7.32261 10.9936 6.64142C12.6382 5.96024 14.4478 5.78201 16.1936 6.12927C17.9394 6.47654 19.5431 7.33371 20.8017 8.59238C22.0604 9.85105 22.9176 11.4547 23.2649 13.2005C23.6121 14.9464 23.4339 16.756 22.7527 18.4005C22.0715 20.045 20.918 21.4506 19.4379 22.4396C17.9579 23.4285 16.2178 23.9563 14.4378 23.9563C12.0516 23.9537 9.764 23.0046 8.07675 21.3174C6.38949 19.6301 5.44043 17.3425 5.43779 14.9563Z" fill="#222222"/>
</svg>
